<mxfile host="app.diagrams.net" modified="2023-10-10T07:16:53.038Z" agent="Mozilla/5.0 (X11; Linux x86_64; rv:109.0) Gecko/20100101 Firefox/119.0" etag="Li9GgxlelzTRTteZzU5S" version="22.0.4" type="device">
  <diagram name="Page-1" id="FOqWL1ko0nOjw41Wa2AQ">
    <mxGraphModel dx="474" dy="766" grid="1" gridSize="10" guides="1" tooltips="1" connect="1" arrows="1" fold="1" page="1" pageScale="1" pageWidth="827" pageHeight="1169" math="0" shadow="0">
      <root>
        <mxCell id="0" />
        <mxCell id="1" parent="0" />
        <mxCell id="WmM5XxwMQHa8LICw4aya-9" style="edgeStyle=orthogonalEdgeStyle;rounded=0;orthogonalLoop=1;jettySize=auto;html=1;entryX=0;entryY=0.5;entryDx=0;entryDy=0;endArrow=none;endFill=0;" edge="1" parent="1" source="WmM5XxwMQHa8LICw4aya-10" target="WmM5XxwMQHa8LICw4aya-12">
          <mxGeometry relative="1" as="geometry" />
        </mxCell>
        <mxCell id="WmM5XxwMQHa8LICw4aya-10" value="Controlleur" style="rounded=0;whiteSpace=wrap;html=1;" vertex="1" parent="1">
          <mxGeometry x="170" y="240" width="120" height="60" as="geometry" />
        </mxCell>
        <mxCell id="WmM5XxwMQHa8LICw4aya-17" style="edgeStyle=orthogonalEdgeStyle;rounded=0;orthogonalLoop=1;jettySize=auto;html=1;entryX=0;entryY=0.5;entryDx=0;entryDy=0;endArrow=none;endFill=0;" edge="1" parent="1" source="WmM5XxwMQHa8LICw4aya-12" target="WmM5XxwMQHa8LICw4aya-13">
          <mxGeometry relative="1" as="geometry" />
        </mxCell>
        <mxCell id="WmM5XxwMQHa8LICw4aya-12" value="Service" style="rounded=0;whiteSpace=wrap;html=1;" vertex="1" parent="1">
          <mxGeometry x="360" y="240" width="120" height="60" as="geometry" />
        </mxCell>
        <mxCell id="WmM5XxwMQHa8LICw4aya-13" value="Repository" style="rounded=0;whiteSpace=wrap;html=1;" vertex="1" parent="1">
          <mxGeometry x="550" y="240" width="120" height="60" as="geometry" />
        </mxCell>
        <mxCell id="WmM5XxwMQHa8LICw4aya-15" value="&lt;font style=&quot;font-size: 16px;&quot;&gt;Back-end&lt;/font&gt;" style="text;html=1;strokeColor=none;fillColor=none;align=center;verticalAlign=middle;whiteSpace=wrap;rounded=0;" vertex="1" parent="1">
          <mxGeometry x="370" y="310" width="110" height="30" as="geometry" />
        </mxCell>
        <mxCell id="WmM5XxwMQHa8LICw4aya-14" value="" style="rounded=0;whiteSpace=wrap;html=1;dashed=1;dashPattern=8 8;fillColor=none;" vertex="1" parent="1">
          <mxGeometry x="135" y="195" width="570" height="150" as="geometry" />
        </mxCell>
        <mxCell id="WmM5XxwMQHa8LICw4aya-18" value="&lt;font style=&quot;font-size: 15px;&quot;&gt;Front-end&lt;/font&gt;" style="text;html=1;strokeColor=none;fillColor=none;align=center;verticalAlign=middle;whiteSpace=wrap;rounded=0;" vertex="1" parent="1">
          <mxGeometry x="20" y="255" width="80" height="30" as="geometry" />
        </mxCell>
        <mxCell id="WmM5XxwMQHa8LICw4aya-19" style="edgeStyle=orthogonalEdgeStyle;rounded=0;orthogonalLoop=1;jettySize=auto;html=1;entryX=0.061;entryY=0.5;entryDx=0;entryDy=0;entryPerimeter=0;endArrow=none;endFill=0;" edge="1" parent="1" source="WmM5XxwMQHa8LICw4aya-18" target="WmM5XxwMQHa8LICw4aya-14">
          <mxGeometry relative="1" as="geometry" />
        </mxCell>
        <mxCell id="WmM5XxwMQHa8LICw4aya-20" value="DTO" style="edgeLabel;html=1;align=center;verticalAlign=middle;resizable=0;points=[];" vertex="1" connectable="0" parent="WmM5XxwMQHa8LICw4aya-19">
          <mxGeometry x="-0.0723" y="-2" relative="1" as="geometry">
            <mxPoint y="-12" as="offset" />
          </mxGeometry>
        </mxCell>
        <mxCell id="WmM5XxwMQHa8LICw4aya-21" value="&lt;font style=&quot;font-size: 15px;&quot;&gt;DB&lt;/font&gt;" style="text;html=1;strokeColor=none;fillColor=none;align=center;verticalAlign=middle;whiteSpace=wrap;rounded=0;" vertex="1" parent="1">
          <mxGeometry x="750" y="255" width="60" height="30" as="geometry" />
        </mxCell>
        <mxCell id="WmM5XxwMQHa8LICw4aya-22" style="edgeStyle=orthogonalEdgeStyle;rounded=0;orthogonalLoop=1;jettySize=auto;html=1;entryX=0.939;entryY=0.5;entryDx=0;entryDy=0;entryPerimeter=0;endArrow=none;endFill=0;" edge="1" parent="1" source="WmM5XxwMQHa8LICw4aya-21" target="WmM5XxwMQHa8LICw4aya-14">
          <mxGeometry relative="1" as="geometry" />
        </mxCell>
      </root>
    </mxGraphModel>
  </diagram>
</mxfile>
